<svg xmlns="http://www.w3.org/2000/svg" xmlns:xlink="http://www.w3.org/1999/xlink" width="500" zoomAndPan="magnify" viewBox="0 0 375 374.999991" height="500" preserveAspectRatio="xMidYMid meet" version="1.0"><defs><g/><clipPath id="469133fb97"><path d="M 44.011719 215.269531 L 96.757812 215.269531 L 96.757812 300.984375 L 44.011719 300.984375 Z M 44.011719 215.269531 " clip-rule="nonzero"/></clipPath><clipPath id="27015d93e0"><path d="M 61.261719 215.269531 L 79.507812 215.269531 C 89.035156 215.269531 96.757812 222.996094 96.757812 232.519531 L 96.757812 283.726562 C 96.757812 293.253906 89.035156 300.976562 79.507812 300.976562 L 61.261719 300.976562 C 51.734375 300.976562 44.011719 293.253906 44.011719 283.726562 L 44.011719 232.519531 C 44.011719 222.996094 51.734375 215.269531 61.261719 215.269531 Z M 61.261719 215.269531 " clip-rule="nonzero"/></clipPath><clipPath id="145cbfb1db"><path d="M 122.023438 242.390625 L 174.769531 242.390625 L 174.769531 301 L 122.023438 301 Z M 122.023438 242.390625 " clip-rule="nonzero"/></clipPath><clipPath id="ae08f49f28"><path d="M 139.273438 242.390625 L 157.519531 242.390625 C 167.046875 242.390625 174.769531 250.113281 174.769531 259.640625 L 174.769531 283.726562 C 174.769531 293.253906 167.046875 300.976562 157.519531 300.976562 L 139.273438 300.976562 C 129.746094 300.976562 122.023438 293.253906 122.023438 283.726562 L 122.023438 259.640625 C 122.023438 250.113281 129.746094 242.390625 139.273438 242.390625 Z M 139.273438 242.390625 " clip-rule="nonzero"/></clipPath><clipPath id="01d1f33996"><path d="M 121.824219 139.28125 L 174.574219 139.28125 L 174.574219 233.441406 L 121.824219 233.441406 Z M 121.824219 139.28125 " clip-rule="nonzero"/></clipPath><clipPath id="446366df4c"><path d="M 139.074219 139.28125 L 157.324219 139.28125 C 166.851562 139.28125 174.574219 147.003906 174.574219 156.53125 L 174.574219 216.078125 C 174.574219 225.605469 166.851562 233.328125 157.324219 233.328125 L 139.074219 233.328125 C 129.550781 233.328125 121.824219 225.605469 121.824219 216.078125 L 121.824219 156.53125 C 121.824219 147.003906 129.550781 139.28125 139.074219 139.28125 Z M 139.074219 139.28125 " clip-rule="nonzero"/></clipPath><clipPath id="674121267a"><path d="M 200.035156 223.261719 L 252.78125 223.261719 L 252.78125 301 L 200.035156 301 Z M 200.035156 223.261719 " clip-rule="nonzero"/></clipPath><clipPath id="ef77bc9239"><path d="M 217.285156 223.261719 L 235.53125 223.261719 C 245.058594 223.261719 252.78125 230.984375 252.78125 240.511719 L 252.78125 283.726562 C 252.78125 293.253906 245.058594 300.976562 235.53125 300.976562 L 217.285156 300.976562 C 207.757812 300.976562 200.035156 293.253906 200.035156 283.726562 L 200.035156 240.511719 C 200.035156 230.984375 207.757812 223.261719 217.285156 223.261719 Z M 217.285156 223.261719 " clip-rule="nonzero"/></clipPath><clipPath id="66a3d2d442"><path d="M 200.035156 63.4375 L 252.886719 63.4375 L 252.886719 116.082031 L 200.035156 116.082031 Z M 200.035156 63.4375 " clip-rule="nonzero"/></clipPath><clipPath id="82c2bad3af"><path d="M 217.285156 63.4375 L 235.53125 63.4375 C 245.058594 63.4375 252.78125 71.160156 252.78125 80.6875 L 252.78125 98.832031 C 252.78125 108.359375 245.058594 116.082031 235.53125 116.082031 L 217.285156 116.082031 C 207.757812 116.082031 200.035156 108.359375 200.035156 98.832031 L 200.035156 80.6875 C 200.035156 71.160156 207.757812 63.4375 217.285156 63.4375 Z M 217.285156 63.4375 " clip-rule="nonzero"/></clipPath><clipPath id="d30f500841"><path d="M 200.035156 129.566406 L 252.78125 129.566406 L 252.78125 215.277344 L 200.035156 215.277344 Z M 200.035156 129.566406 " clip-rule="nonzero"/></clipPath><clipPath id="93a31b1679"><path d="M 217.285156 129.566406 L 235.53125 129.566406 C 245.058594 129.566406 252.78125 137.289062 252.78125 146.816406 L 252.78125 198.019531 C 252.78125 207.546875 245.058594 215.269531 235.53125 215.269531 L 217.285156 215.269531 C 207.757812 215.269531 200.035156 207.546875 200.035156 198.019531 L 200.035156 146.816406 C 200.035156 137.289062 207.757812 129.566406 217.285156 129.566406 Z M 217.285156 129.566406 " clip-rule="nonzero"/></clipPath><clipPath id="63fdc67856"><path d="M 278.242188 242.390625 L 330.988281 242.390625 L 330.988281 301 L 278.242188 301 Z M 278.242188 242.390625 " clip-rule="nonzero"/></clipPath><clipPath id="ae2bb83e05"><path d="M 295.492188 242.390625 L 313.738281 242.390625 C 323.265625 242.390625 330.988281 250.113281 330.988281 259.640625 L 330.988281 283.726562 C 330.988281 293.253906 323.265625 300.976562 313.738281 300.976562 L 295.492188 300.976562 C 285.964844 300.976562 278.242188 293.253906 278.242188 283.726562 L 278.242188 259.640625 C 278.242188 250.113281 285.964844 242.390625 295.492188 242.390625 Z M 295.492188 242.390625 " clip-rule="nonzero"/></clipPath><clipPath id="7676925554"><path d="M 278.242188 155.242188 L 330.988281 155.242188 L 330.988281 233.332031 L 278.242188 233.332031 Z M 278.242188 155.242188 " clip-rule="nonzero"/></clipPath><clipPath id="fd769ab379"><path d="M 295.492188 155.242188 L 313.738281 155.242188 C 323.265625 155.242188 330.988281 162.964844 330.988281 172.492188 L 330.988281 216.078125 C 330.988281 225.605469 323.265625 233.328125 313.738281 233.328125 L 295.492188 233.328125 C 285.964844 233.328125 278.242188 225.605469 278.242188 216.078125 L 278.242188 172.492188 C 278.242188 162.964844 285.964844 155.242188 295.492188 155.242188 Z M 295.492188 155.242188 " clip-rule="nonzero"/></clipPath><clipPath id="9812ab5118"><path d="M 278.242188 3.300781 L 330.988281 3.300781 L 330.988281 145.058594 L 278.242188 145.058594 Z M 278.242188 3.300781 " clip-rule="nonzero"/></clipPath><clipPath id="1058bcb6ea"><path d="M 295.492188 3.300781 L 313.738281 3.300781 C 323.265625 3.300781 330.988281 11.023438 330.988281 20.550781 L 330.988281 127.808594 C 330.988281 137.335938 323.265625 145.058594 313.738281 145.058594 L 295.492188 145.058594 C 285.964844 145.058594 278.242188 137.335938 278.242188 127.808594 L 278.242188 20.550781 C 278.242188 11.023438 285.964844 3.300781 295.492188 3.300781 Z M 295.492188 3.300781 " clip-rule="nonzero"/></clipPath></defs><g clip-path="url(#469133fb97)"><g clip-path="url(#27015d93e0)"><path fill="#db4141" d="M 44.011719 215.269531 L 96.757812 215.269531 L 96.757812 300.984375 L 44.011719 300.984375 Z M 44.011719 215.269531 " fill-opacity="1" fill-rule="nonzero"/></g></g><g clip-path="url(#145cbfb1db)"><g clip-path="url(#ae08f49f28)"><path fill="#ffde59" d="M 122.023438 242.390625 L 174.769531 242.390625 L 174.769531 300.90625 L 122.023438 300.90625 Z M 122.023438 242.390625 " fill-opacity="1" fill-rule="nonzero"/></g></g><g clip-path="url(#01d1f33996)"><g clip-path="url(#446366df4c)"><path fill="#ffde59" d="M 121.824219 139.28125 L 174.574219 139.28125 L 174.574219 233.234375 L 121.824219 233.234375 Z M 121.824219 139.28125 " fill-opacity="1" fill-rule="nonzero"/></g></g><g clip-path="url(#674121267a)"><g clip-path="url(#ef77bc9239)"><path fill="#00bf63" d="M 200.035156 223.261719 L 252.78125 223.261719 L 252.78125 300.941406 L 200.035156 300.941406 Z M 200.035156 223.261719 " fill-opacity="1" fill-rule="nonzero"/></g></g><g clip-path="url(#66a3d2d442)"><g clip-path="url(#82c2bad3af)"><path fill="#00bf63" d="M 200.035156 63.4375 L 252.679688 63.4375 L 252.679688 116.082031 L 200.035156 116.082031 Z M 200.035156 63.4375 " fill-opacity="1" fill-rule="nonzero"/></g></g><g clip-path="url(#d30f500841)"><g clip-path="url(#93a31b1679)"><path fill="#00bf63" d="M 200.035156 129.566406 L 252.78125 129.566406 L 252.78125 215.277344 L 200.035156 215.277344 Z M 200.035156 129.566406 " fill-opacity="1" fill-rule="nonzero"/></g></g><g clip-path="url(#63fdc67856)"><g clip-path="url(#ae2bb83e05)"><path fill="#6880f1" d="M 278.242188 242.390625 L 330.988281 242.390625 L 330.988281 300.90625 L 278.242188 300.90625 Z M 278.242188 242.390625 " fill-opacity="1" fill-rule="nonzero"/></g></g><g clip-path="url(#7676925554)"><g clip-path="url(#fd769ab379)"><path fill="#6880f1" d="M 278.242188 155.242188 L 330.988281 155.242188 L 330.988281 233.332031 L 278.242188 233.332031 Z M 278.242188 155.242188 " fill-opacity="1" fill-rule="nonzero"/></g></g><g clip-path="url(#9812ab5118)"><g clip-path="url(#1058bcb6ea)"><path fill="#6880f1" d="M 278.242188 3.300781 L 330.988281 3.300781 L 330.988281 145.058594 L 278.242188 145.058594 Z M 278.242188 3.300781 " fill-opacity="1" fill-rule="nonzero"/></g></g><g fill="#000000" fill-opacity="1"><g transform="translate(44.011024, 357.425778)"><g><path d="M 19.421875 -19.921875 L 27.96875 -19.984375 C 30.78125 -19.984375 32.1875 -18.6875 32.1875 -16.09375 L 32.1875 -1.671875 C 28.039062 -0.078125 23.472656 0.71875 18.484375 0.71875 C 15.703125 0.71875 13.265625 0.203125 11.171875 -0.828125 C 9.085938 -1.867188 7.4375 -3.296875 6.21875 -5.109375 C 3.882812 -8.691406 2.71875 -13.222656 2.71875 -18.703125 C 2.71875 -22.109375 3.179688 -25.125 4.109375 -27.75 C 5.035156 -30.375 6.289062 -32.445312 7.875 -33.96875 C 11.09375 -37.070312 14.847656 -38.625 19.140625 -38.625 C 24.179688 -38.625 28.492188 -37.273438 32.078125 -34.578125 C 31.785156 -32.722656 30.84375 -31.242188 29.25 -30.140625 C 26.21875 -32.429688 22.847656 -33.578125 19.140625 -33.578125 C 16.078125 -33.578125 13.597656 -32.375 11.703125 -29.96875 C 9.816406 -27.5625 8.875 -23.785156 8.875 -18.640625 C 8.875 -8.984375 12.410156 -4.15625 19.484375 -4.15625 C 22.109375 -4.15625 24.457031 -4.472656 26.53125 -5.109375 L 26.53125 -11.328125 C 26.53125 -12.953125 26.566406 -14.132812 26.640625 -14.875 L 21.75 -14.875 C 19.90625 -14.875 18.984375 -15.742188 18.984375 -17.484375 C 18.984375 -18.335938 19.128906 -19.148438 19.421875 -19.921875 Z M 19.421875 -19.921875 "/></g></g></g><g fill="#000000" fill-opacity="1"><g transform="translate(79.696139, 357.425778)"><g><path d="M 26.359375 -5.046875 C 26.359375 -3.453125 26.117188 -2.210938 25.640625 -1.328125 C 25.160156 -0.441406 24.125 0 22.53125 0 L 5.265625 0 C 3.753906 -1.332031 3 -2.535156 3 -3.609375 C 3 -6.566406 5.3125 -10.082031 9.9375 -14.15625 L 15.375 -18.921875 C 16.78125 -20.140625 17.820312 -21.390625 18.5 -22.671875 C 19.1875 -23.953125 19.53125 -25.203125 19.53125 -26.421875 C 19.53125 -28.085938 19.03125 -29.414062 18.03125 -30.40625 C 17.03125 -31.40625 15.753906 -31.90625 14.203125 -31.90625 C 12.648438 -31.90625 11.304688 -31.414062 10.171875 -30.4375 C 9.046875 -29.457031 8.171875 -28.191406 7.546875 -26.640625 C 6.765625 -26.679688 5.96875 -26.875 5.15625 -27.21875 C 4.34375 -27.570312 3.753906 -28.023438 3.390625 -28.578125 C 3.796875 -29.722656 4.347656 -30.785156 5.046875 -31.765625 C 5.753906 -32.753906 6.597656 -33.609375 7.578125 -34.328125 C 8.554688 -35.046875 9.675781 -35.617188 10.9375 -36.046875 C 12.195312 -36.472656 13.582031 -36.6875 15.09375 -36.6875 C 16.570312 -36.6875 17.945312 -36.425781 19.21875 -35.90625 C 20.5 -35.382812 21.601562 -34.671875 22.53125 -33.765625 C 23.457031 -32.859375 24.175781 -31.800781 24.6875 -30.59375 C 25.207031 -29.394531 25.46875 -28.113281 25.46875 -26.75 C 25.46875 -25.34375 25.320312 -24.113281 25.03125 -23.0625 C 24.738281 -22.007812 24.296875 -21.019531 23.703125 -20.09375 C 23.109375 -19.164062 22.375 -18.273438 21.5 -17.421875 C 20.632812 -16.578125 19.644531 -15.671875 18.53125 -14.703125 L 14.265625 -11.046875 C 11.003906 -8.234375 9.191406 -6.085938 8.828125 -4.609375 C 10.265625 -4.753906 11.59375 -4.863281 12.8125 -4.9375 C 14.039062 -5.007812 15.15625 -5.046875 16.15625 -5.046875 Z M 26.359375 -5.046875 "/></g></g></g><g fill="#000000" fill-opacity="1"><g transform="translate(109.110025, 357.425778)"><g/></g></g><g fill="#000000" fill-opacity="1"><g transform="translate(121.319541, 357.425778)"><g><path d="M 15.875 -5.109375 L 26.921875 -5.109375 C 26.921875 -4.296875 26.863281 -3.519531 26.75 -2.78125 C 26.414062 -0.882812 25.140625 0.0625 22.921875 0.0625 L 8.4375 0.0625 C 7.394531 0.0625 6.5625 -0.257812 5.9375 -0.90625 C 5.3125 -1.5625 5 -2.460938 5 -3.609375 L 5 -37.796875 L 5.390625 -38.125 L 7.609375 -38.125 C 8.828125 -38.125 9.6875 -37.828125 10.1875 -37.234375 C 10.6875 -36.648438 10.9375 -35.691406 10.9375 -34.359375 L 10.9375 -4.890625 C 12.445312 -5.035156 14.09375 -5.109375 15.875 -5.109375 Z M 15.875 -5.109375 "/></g></g></g><g fill="#000000" fill-opacity="1"><g transform="translate(149.734456, 357.425778)"><g><path d="M 24.640625 -11.875 L 8.328125 -11.875 C 8.429688 -9.320312 8.972656 -7.359375 9.953125 -5.984375 C 10.941406 -4.617188 12.597656 -3.9375 14.921875 -3.9375 C 16.035156 -3.9375 17.226562 -4.101562 18.5 -4.4375 C 19.78125 -4.769531 21.109375 -5.304688 22.484375 -6.046875 C 23.398438 -5.191406 24.007812 -3.972656 24.3125 -2.390625 C 21.351562 -0.316406 17.875 0.71875 13.875 0.71875 C 11.769531 0.71875 9.992188 0.347656 8.546875 -0.390625 C 7.097656 -1.128906 5.921875 -2.144531 5.015625 -3.4375 C 4.109375 -4.738281 3.453125 -6.285156 3.046875 -8.078125 C 2.640625 -9.867188 2.4375 -11.800781 2.4375 -13.875 C 2.4375 -15.90625 2.695312 -17.800781 3.21875 -19.5625 C 3.738281 -21.320312 4.476562 -22.828125 5.4375 -24.078125 C 6.394531 -25.335938 7.585938 -26.328125 9.015625 -27.046875 C 10.441406 -27.773438 12.039062 -28.140625 13.8125 -28.140625 C 15.59375 -28.140625 17.175781 -27.84375 18.5625 -27.25 C 19.945312 -26.65625 21.117188 -25.832031 22.078125 -24.78125 C 23.046875 -23.726562 23.78125 -22.46875 24.28125 -21 C 24.78125 -19.539062 25.03125 -17.960938 25.03125 -16.265625 C 25.03125 -15.523438 25 -14.789062 24.9375 -14.0625 C 24.882812 -13.34375 24.785156 -12.613281 24.640625 -11.875 Z M 13.984375 -23.859375 C 10.472656 -23.859375 8.585938 -21.253906 8.328125 -16.046875 L 19.53125 -16.046875 L 19.53125 -16.765625 C 19.53125 -18.867188 19.078125 -20.578125 18.171875 -21.890625 C 17.265625 -23.203125 15.867188 -23.859375 13.984375 -23.859375 Z M 13.984375 -23.859375 "/></g></g></g><g fill="#000000" fill-opacity="1"><g transform="translate(177.483414, 357.425778)"><g><path d="M 25.578125 -2.546875 C 25.140625 -1.222656 24.421875 -0.242188 23.421875 0.390625 C 21.234375 -0.015625 19.753906 -1.160156 18.984375 -3.046875 C 16.359375 -0.535156 13.65625 0.71875 10.875 0.71875 C 9.46875 0.71875 8.238281 0.492188 7.1875 0.046875 C 6.132812 -0.390625 5.242188 -0.988281 4.515625 -1.75 C 3.796875 -2.507812 3.257812 -3.378906 2.90625 -4.359375 C 2.5625 -5.335938 2.390625 -6.363281 2.390625 -7.4375 C 2.390625 -10.46875 3.359375 -12.757812 5.296875 -14.3125 C 7.242188 -15.875 9.828125 -16.65625 13.046875 -16.65625 C 13.972656 -16.65625 14.878906 -16.625 15.765625 -16.5625 C 16.648438 -16.507812 17.519531 -16.410156 18.375 -16.265625 L 18.375 -18.421875 C 18.375 -21.710938 16.851562 -23.359375 13.8125 -23.359375 C 11.707031 -23.359375 8.804688 -22.65625 5.109375 -21.25 C 4.035156 -22.175781 3.476562 -23.566406 3.4375 -25.421875 C 7.21875 -27.117188 11.046875 -27.96875 14.921875 -27.96875 C 17.816406 -27.96875 20.054688 -27.195312 21.640625 -25.65625 C 23.234375 -24.125 24.03125 -21.804688 24.03125 -18.703125 L 24.03125 -7.328125 C 24.03125 -5.035156 24.546875 -3.441406 25.578125 -2.546875 Z M 11.828125 -3.828125 C 14.191406 -3.828125 16.375 -4.9375 18.375 -7.15625 L 18.375 -12.4375 C 17.632812 -12.507812 16.851562 -12.5625 16.03125 -12.59375 C 15.21875 -12.632812 14.367188 -12.65625 13.484375 -12.65625 C 11.785156 -12.65625 10.460938 -12.238281 9.515625 -11.40625 C 8.578125 -10.570312 8.109375 -9.472656 8.109375 -8.109375 C 8.109375 -6.773438 8.4375 -5.726562 9.09375 -4.96875 C 9.757812 -4.207031 10.671875 -3.828125 11.828125 -3.828125 Z M 11.828125 -3.828125 "/></g></g></g><g fill="#000000" fill-opacity="1"><g transform="translate(205.620853, 357.425778)"><g><path d="M 2.78125 -24.75 C 3.144531 -26.125 3.847656 -27.144531 4.890625 -27.8125 C 7.441406 -27.25 9.125 -25.597656 9.9375 -22.859375 C 11.414062 -26.160156 13.835938 -27.8125 17.203125 -27.8125 C 18.085938 -27.8125 19.066406 -27.695312 20.140625 -27.46875 C 20.140625 -25.320312 19.679688 -23.507812 18.765625 -22.03125 C 18.429688 -22.144531 17.671875 -22.238281 16.484375 -22.3125 C 13.960938 -22.3125 11.984375 -20.90625 10.546875 -18.09375 L 10.546875 0 C 9.835938 0.144531 8.882812 0.21875 7.6875 0.21875 C 6.488281 0.21875 5.535156 0.144531 4.828125 0 L 4.828125 -19.03125 C 4.828125 -21.550781 4.144531 -23.457031 2.78125 -24.75 Z M 2.78125 -24.75 "/></g></g></g><g fill="#000000" fill-opacity="1"><g transform="translate(226.044073, 357.425778)"><g><path d="M 26.203125 -18.8125 L 26.203125 -5.890625 C 26.203125 -3.703125 26.515625 -2.015625 27.140625 -0.828125 C 26.179688 -0.015625 25.050781 0.390625 23.75 0.390625 C 22.488281 0.390625 21.628906 0.0859375 21.171875 -0.515625 C 20.710938 -1.128906 20.484375 -2.050781 20.484375 -3.28125 L 20.484375 -17.375 C 20.484375 -19.289062 20.234375 -20.65625 19.734375 -21.46875 C 19.234375 -22.289062 18.375 -22.703125 17.15625 -22.703125 C 15.925781 -22.703125 14.671875 -22.394531 13.390625 -21.78125 C 12.117188 -21.175781 11.003906 -20.335938 10.046875 -19.265625 L 10.046875 0 C 9.421875 0.144531 8.476562 0.21875 7.21875 0.21875 C 6.625 0.21875 6.085938 0.195312 5.609375 0.15625 C 5.128906 0.125 4.703125 0.0703125 4.328125 0 L 4.328125 -27.3125 L 4.65625 -27.640625 L 6.828125 -27.640625 C 8.828125 -27.640625 9.878906 -26.492188 9.984375 -24.203125 C 12.691406 -26.679688 15.632812 -27.921875 18.8125 -27.921875 C 21.289062 -27.921875 23.140625 -27.097656 24.359375 -25.453125 C 25.585938 -23.804688 26.203125 -21.59375 26.203125 -18.8125 Z M 26.203125 -18.8125 "/></g></g></g><g fill="#000000" fill-opacity="1"><g transform="translate(256.345925, 357.425778)"><g><path d="M 10.828125 -22.640625 L 10.828125 0 C 10.117188 0.144531 9.160156 0.21875 7.953125 0.21875 C 6.753906 0.21875 5.804688 0.144531 5.109375 0 L 5.109375 -20.3125 C 5.109375 -21.34375 4.921875 -22.082031 4.546875 -22.53125 C 4.179688 -22.976562 3.550781 -23.203125 2.65625 -23.203125 L 2.046875 -23.203125 C 1.867188 -24.015625 1.78125 -24.695312 1.78125 -25.25 C 1.78125 -25.800781 1.867188 -26.503906 2.046875 -27.359375 C 3.273438 -27.503906 4.441406 -27.578125 5.546875 -27.578125 L 6.328125 -27.578125 C 7.734375 -27.578125 8.832031 -27.132812 9.625 -26.25 C 10.425781 -25.363281 10.828125 -24.160156 10.828125 -22.640625 Z M 3.890625 -32.578125 C 3.554688 -33.242188 3.390625 -34.054688 3.390625 -35.015625 C 3.390625 -36.535156 3.664062 -37.429688 4.21875 -37.703125 C 4.769531 -37.984375 5.695312 -38.144531 7 -38.1875 C 8.476562 -38.144531 9.421875 -37.957031 9.828125 -37.625 C 10.234375 -37.289062 10.453125 -36.421875 10.484375 -35.015625 C 10.453125 -33.679688 10.234375 -32.828125 9.828125 -32.453125 C 9.421875 -32.085938 8.476562 -31.890625 7 -31.859375 C 5.550781 -31.859375 4.515625 -32.097656 3.890625 -32.578125 Z M 3.890625 -32.578125 "/></g></g></g><g fill="#000000" fill-opacity="1"><g transform="translate(271.385881, 357.425778)"><g><path d="M 26.203125 -18.8125 L 26.203125 -5.890625 C 26.203125 -3.703125 26.515625 -2.015625 27.140625 -0.828125 C 26.179688 -0.015625 25.050781 0.390625 23.75 0.390625 C 22.488281 0.390625 21.628906 0.0859375 21.171875 -0.515625 C 20.710938 -1.128906 20.484375 -2.050781 20.484375 -3.28125 L 20.484375 -17.375 C 20.484375 -19.289062 20.234375 -20.65625 19.734375 -21.46875 C 19.234375 -22.289062 18.375 -22.703125 17.15625 -22.703125 C 15.925781 -22.703125 14.671875 -22.394531 13.390625 -21.78125 C 12.117188 -21.175781 11.003906 -20.335938 10.046875 -19.265625 L 10.046875 0 C 9.421875 0.144531 8.476562 0.21875 7.21875 0.21875 C 6.625 0.21875 6.085938 0.195312 5.609375 0.15625 C 5.128906 0.125 4.703125 0.0703125 4.328125 0 L 4.328125 -27.3125 L 4.65625 -27.640625 L 6.828125 -27.640625 C 8.828125 -27.640625 9.878906 -26.492188 9.984375 -24.203125 C 12.691406 -26.679688 15.632812 -27.921875 18.8125 -27.921875 C 21.289062 -27.921875 23.140625 -27.097656 24.359375 -25.453125 C 25.585938 -23.804688 26.203125 -21.59375 26.203125 -18.8125 Z M 26.203125 -18.8125 "/></g></g></g><g fill="#000000" fill-opacity="1"><g transform="translate(301.687733, 357.425778)"><g><path d="M 20.640625 -25.25 C 21.453125 -26.539062 22.726562 -27.394531 24.46875 -27.8125 C 24.914062 -27.507812 25.351562 -27.0625 25.78125 -26.46875 C 26.207031 -25.875 26.472656 -25.335938 26.578125 -24.859375 C 25.546875 -23.859375 25.03125 -22.101562 25.03125 -19.59375 L 25.03125 -3.15625 C 25.03125 -0.3125 24.796875 2.085938 24.328125 4.046875 C 23.867188 6.015625 23.15625 7.597656 22.1875 8.796875 C 21.226562 9.992188 20.007812 10.859375 18.53125 11.390625 C 17.050781 11.929688 15.273438 12.203125 13.203125 12.203125 C 9.910156 12.203125 6.710938 11.59375 3.609375 10.375 C 3.640625 8.601562 4.140625 7.160156 5.109375 6.046875 C 7.441406 7.191406 9.957031 7.765625 12.65625 7.765625 C 15.28125 7.765625 17.070312 7.085938 18.03125 5.734375 C 19 4.390625 19.484375 2.5 19.484375 0.0625 L 19.484375 -2.5 C 17.296875 -0.5 14.722656 0.5 11.765625 0.5 C 8.835938 0.5 6.550781 -0.773438 4.90625 -3.328125 C 3.257812 -5.878906 2.4375 -9.394531 2.4375 -13.875 C 2.4375 -16.132812 2.710938 -18.140625 3.265625 -19.890625 C 3.828125 -21.648438 4.609375 -23.140625 5.609375 -24.359375 C 6.609375 -25.585938 7.742188 -26.523438 9.015625 -27.171875 C 10.296875 -27.816406 11.65625 -28.140625 13.09375 -28.140625 C 16.050781 -28.140625 18.566406 -27.175781 20.640625 -25.25 Z M 19.484375 -7.546875 L 19.484375 -21.03125 C 17.628906 -22.695312 15.816406 -23.53125 14.046875 -23.53125 C 12.265625 -23.53125 10.851562 -22.695312 9.8125 -21.03125 C 8.78125 -19.363281 8.265625 -16.90625 8.265625 -13.65625 C 8.265625 -10.4375 8.726562 -8.066406 9.65625 -6.546875 C 10.582031 -5.035156 11.785156 -4.28125 13.265625 -4.28125 C 15.554688 -4.28125 17.628906 -5.367188 19.484375 -7.546875 Z M 19.484375 -7.546875 "/></g></g></g></svg>