<svg xmlns="http://www.w3.org/2000/svg" xmlns:xlink="http://www.w3.org/1999/xlink" width="500" zoomAndPan="magnify" viewBox="0 0 375 374.999991" height="500" preserveAspectRatio="xMidYMid meet" version="1.0"><defs><clipPath id="96b9b34925"><path d="M 44.011719 249.46875 L 96.757812 249.46875 L 96.757812 335.183594 L 44.011719 335.183594 Z M 44.011719 249.46875 " clip-rule="nonzero"/></clipPath><clipPath id="0a0bd7d85d"><path d="M 61.261719 249.46875 L 79.507812 249.46875 C 89.035156 249.46875 96.757812 257.191406 96.757812 266.71875 L 96.757812 317.925781 C 96.757812 327.453125 89.035156 335.175781 79.507812 335.175781 L 61.261719 335.175781 C 51.734375 335.175781 44.011719 327.453125 44.011719 317.925781 L 44.011719 266.71875 C 44.011719 257.191406 51.734375 249.46875 61.261719 249.46875 Z M 61.261719 249.46875 " clip-rule="nonzero"/></clipPath><clipPath id="ce40765bdc"><path d="M 122.023438 276.589844 L 174.769531 276.589844 L 174.769531 335.3125 L 122.023438 335.3125 Z M 122.023438 276.589844 " clip-rule="nonzero"/></clipPath><clipPath id="f3d7521c5e"><path d="M 139.273438 276.589844 L 157.519531 276.589844 C 167.046875 276.589844 174.769531 284.3125 174.769531 293.839844 L 174.769531 317.925781 C 174.769531 327.453125 167.046875 335.175781 157.519531 335.175781 L 139.273438 335.175781 C 129.746094 335.175781 122.023438 327.453125 122.023438 317.925781 L 122.023438 293.839844 C 122.023438 284.3125 129.746094 276.589844 139.273438 276.589844 Z M 139.273438 276.589844 " clip-rule="nonzero"/></clipPath><clipPath id="08e354e51a"><path d="M 121.824219 173.480469 L 174.574219 173.480469 L 174.574219 267.640625 L 121.824219 267.640625 Z M 121.824219 173.480469 " clip-rule="nonzero"/></clipPath><clipPath id="21bb0b5cda"><path d="M 139.074219 173.480469 L 157.324219 173.480469 C 166.851562 173.480469 174.574219 181.203125 174.574219 190.730469 L 174.574219 250.277344 C 174.574219 259.804688 166.851562 267.527344 157.324219 267.527344 L 139.074219 267.527344 C 129.550781 267.527344 121.824219 259.804688 121.824219 250.277344 L 121.824219 190.730469 C 121.824219 181.203125 129.550781 173.480469 139.074219 173.480469 Z M 139.074219 173.480469 " clip-rule="nonzero"/></clipPath><clipPath id="dd3369759f"><path d="M 200.035156 257.460938 L 252.78125 257.460938 L 252.78125 335.34375 L 200.035156 335.34375 Z M 200.035156 257.460938 " clip-rule="nonzero"/></clipPath><clipPath id="5fb59c7812"><path d="M 217.285156 257.460938 L 235.53125 257.460938 C 245.058594 257.460938 252.78125 265.183594 252.78125 274.710938 L 252.78125 317.925781 C 252.78125 327.453125 245.058594 335.175781 235.53125 335.175781 L 217.285156 335.175781 C 207.757812 335.175781 200.035156 327.453125 200.035156 317.925781 L 200.035156 274.710938 C 200.035156 265.183594 207.757812 257.460938 217.285156 257.460938 Z M 217.285156 257.460938 " clip-rule="nonzero"/></clipPath><clipPath id="4d590d3b09"><path d="M 200.035156 97.636719 L 252.886719 97.636719 L 252.886719 150.28125 L 200.035156 150.28125 Z M 200.035156 97.636719 " clip-rule="nonzero"/></clipPath><clipPath id="aa53225c93"><path d="M 217.285156 97.636719 L 235.53125 97.636719 C 245.058594 97.636719 252.78125 105.359375 252.78125 114.886719 L 252.78125 133.03125 C 252.78125 142.558594 245.058594 150.28125 235.53125 150.28125 L 217.285156 150.28125 C 207.757812 150.28125 200.035156 142.558594 200.035156 133.03125 L 200.035156 114.886719 C 200.035156 105.359375 207.757812 97.636719 217.285156 97.636719 Z M 217.285156 97.636719 " clip-rule="nonzero"/></clipPath><clipPath id="dc76af2909"><path d="M 200.035156 163.765625 L 252.78125 163.765625 L 252.78125 249.476562 L 200.035156 249.476562 Z M 200.035156 163.765625 " clip-rule="nonzero"/></clipPath><clipPath id="6b419a131d"><path d="M 217.285156 163.765625 L 235.53125 163.765625 C 245.058594 163.765625 252.78125 171.488281 252.78125 181.015625 L 252.78125 232.21875 C 252.78125 241.746094 245.058594 249.46875 235.53125 249.46875 L 217.285156 249.46875 C 207.757812 249.46875 200.035156 241.746094 200.035156 232.21875 L 200.035156 181.015625 C 200.035156 171.488281 207.757812 163.765625 217.285156 163.765625 Z M 217.285156 163.765625 " clip-rule="nonzero"/></clipPath><clipPath id="908d8f9b73"><path d="M 278.242188 276.589844 L 330.988281 276.589844 L 330.988281 335.3125 L 278.242188 335.3125 Z M 278.242188 276.589844 " clip-rule="nonzero"/></clipPath><clipPath id="8e35b1df37"><path d="M 295.492188 276.589844 L 313.738281 276.589844 C 323.265625 276.589844 330.988281 284.3125 330.988281 293.839844 L 330.988281 317.925781 C 330.988281 327.453125 323.265625 335.175781 313.738281 335.175781 L 295.492188 335.175781 C 285.964844 335.175781 278.242188 327.453125 278.242188 317.925781 L 278.242188 293.839844 C 278.242188 284.3125 285.964844 276.589844 295.492188 276.589844 Z M 295.492188 276.589844 " clip-rule="nonzero"/></clipPath><clipPath id="d14f6bd81e"><path d="M 278.242188 189.441406 L 330.988281 189.441406 L 330.988281 267.53125 L 278.242188 267.53125 Z M 278.242188 189.441406 " clip-rule="nonzero"/></clipPath><clipPath id="41bd092c79"><path d="M 295.492188 189.441406 L 313.738281 189.441406 C 323.265625 189.441406 330.988281 197.164062 330.988281 206.691406 L 330.988281 250.277344 C 330.988281 259.804688 323.265625 267.527344 313.738281 267.527344 L 295.492188 267.527344 C 285.964844 267.527344 278.242188 259.804688 278.242188 250.277344 L 278.242188 206.691406 C 278.242188 197.164062 285.964844 189.441406 295.492188 189.441406 Z M 295.492188 189.441406 " clip-rule="nonzero"/></clipPath><clipPath id="7337212be8"><path d="M 278.242188 37.5 L 330.988281 37.5 L 330.988281 179.257812 L 278.242188 179.257812 Z M 278.242188 37.5 " clip-rule="nonzero"/></clipPath><clipPath id="b946d41346"><path d="M 295.492188 37.5 L 313.738281 37.5 C 323.265625 37.5 330.988281 45.222656 330.988281 54.75 L 330.988281 162.007812 C 330.988281 171.53125 323.265625 179.257812 313.738281 179.257812 L 295.492188 179.257812 C 285.964844 179.257812 278.242188 171.53125 278.242188 162.007812 L 278.242188 54.75 C 278.242188 45.222656 285.964844 37.5 295.492188 37.5 Z M 295.492188 37.5 " clip-rule="nonzero"/></clipPath></defs><g clip-path="url(#96b9b34925)"><g clip-path="url(#0a0bd7d85d)"><path fill="#db4141" d="M 44.011719 249.46875 L 96.757812 249.46875 L 96.757812 335.183594 L 44.011719 335.183594 Z M 44.011719 249.46875 " fill-opacity="1" fill-rule="nonzero"/></g></g><g clip-path="url(#ce40765bdc)"><g clip-path="url(#f3d7521c5e)"><path fill="#ffde59" d="M 122.023438 276.589844 L 174.769531 276.589844 L 174.769531 335.105469 L 122.023438 335.105469 Z M 122.023438 276.589844 " fill-opacity="1" fill-rule="nonzero"/></g></g><g clip-path="url(#08e354e51a)"><g clip-path="url(#21bb0b5cda)"><path fill="#ffde59" d="M 121.824219 173.480469 L 174.574219 173.480469 L 174.574219 267.433594 L 121.824219 267.433594 Z M 121.824219 173.480469 " fill-opacity="1" fill-rule="nonzero"/></g></g><g clip-path="url(#dd3369759f)"><g clip-path="url(#5fb59c7812)"><path fill="#00bf63" d="M 200.035156 257.460938 L 252.78125 257.460938 L 252.78125 335.136719 L 200.035156 335.136719 Z M 200.035156 257.460938 " fill-opacity="1" fill-rule="nonzero"/></g></g><g clip-path="url(#4d590d3b09)"><g clip-path="url(#aa53225c93)"><path fill="#00bf63" d="M 200.035156 97.636719 L 252.679688 97.636719 L 252.679688 150.28125 L 200.035156 150.28125 Z M 200.035156 97.636719 " fill-opacity="1" fill-rule="nonzero"/></g></g><g clip-path="url(#dc76af2909)"><g clip-path="url(#6b419a131d)"><path fill="#00bf63" d="M 200.035156 163.765625 L 252.78125 163.765625 L 252.78125 249.476562 L 200.035156 249.476562 Z M 200.035156 163.765625 " fill-opacity="1" fill-rule="nonzero"/></g></g><g clip-path="url(#908d8f9b73)"><g clip-path="url(#8e35b1df37)"><path fill="#6880f1" d="M 278.242188 276.589844 L 330.988281 276.589844 L 330.988281 335.105469 L 278.242188 335.105469 Z M 278.242188 276.589844 " fill-opacity="1" fill-rule="nonzero"/></g></g><g clip-path="url(#d14f6bd81e)"><g clip-path="url(#41bd092c79)"><path fill="#6880f1" d="M 278.242188 189.441406 L 330.988281 189.441406 L 330.988281 267.53125 L 278.242188 267.53125 Z M 278.242188 189.441406 " fill-opacity="1" fill-rule="nonzero"/></g></g><g clip-path="url(#7337212be8)"><g clip-path="url(#b946d41346)"><path fill="#6880f1" d="M 278.242188 37.5 L 330.988281 37.5 L 330.988281 179.257812 L 278.242188 179.257812 Z M 278.242188 37.5 " fill-opacity="1" fill-rule="nonzero"/></g></g></svg>